<svg width="20" height="20" viewBox="0 0 20 20" fill="none" xmlns="http://www.w3.org/2000/svg">
<path d="M15 5C14.8437 4.84377 14.6318 4.75601 14.4108 4.75601C14.1899 4.75601 13.9779 4.84377 13.8217 5L10 8.82167L6.17833 5C6.02206 4.84377 5.81014 4.75601 5.58917 4.75601C5.3682 4.75601 5.15627 4.84377 5 5C4.84377 5.15627 4.75601 5.3682 4.75601 5.58917C4.75601 5.81014 4.84377 6.02206 5 6.17833L8.82167 10L5 13.8217C4.84377 13.9779 4.75601 14.1899 4.75601 14.4108C4.75601 14.6318 4.84377 14.8437 5 15C5.15627 15.1562 5.3682 15.244 5.58917 15.244C5.81014 15.244 6.02206 15.1562 6.17833 15L10 11.1783L13.8217 15C13.9779 15.1562 14.1899 15.244 14.4108 15.244C14.6318 15.244 14.8437 15.1562 15 15C15.1562 14.8437 15.244 14.6318 15.244 14.4108C15.244 14.1899 15.1562 13.9779 15 13.8217L11.1783 10L15 6.17833C15.1562 6.02206 15.244 5.81014 15.244 5.58917C15.244 5.3682 15.1562 5.15627 15 5V5Z" fill="#676767"/>
</svg>
