<svg width="17" height="16" viewBox="0 0 17 16" fill="none" xmlns="http://www.w3.org/2000/svg">
<g clip-path="url(#clip0_414_2)">
<path d="M4.97559 14C5.23539 14.5943 5.66403 15.1001 6.20885 15.4554C6.75366 15.8107 7.39094 16 8.04239 16C8.69385 16 9.33113 15.8107 9.87594 15.4554C10.4208 15.1001 10.8494 14.5943 11.1092 14H4.97559Z" fill="#A1A5B7"/>
<path d="M15.0069 8.36644L13.8435 4.55111C13.4709 3.21667 12.6608 2.04429 11.5419 1.22011C10.423 0.395927 9.0594 -0.0328134 7.66756 0.00196019C6.27573 0.0367338 4.93546 0.533029 3.85956 1.41205C2.78366 2.29106 2.0338 3.50242 1.72903 4.85378L0.825612 8.54511C0.705536 9.03561 0.69903 9.54684 0.806586 10.0402C0.914142 10.5336 1.13295 10.9962 1.44649 11.3932C1.76004 11.7901 2.16013 12.1111 2.61658 12.3317C3.07303 12.5524 3.57391 12.6671 4.08141 12.6671H11.8C12.3233 12.6671 12.8393 12.5453 13.3066 12.3113C13.774 12.0773 14.1798 11.7376 14.4916 11.3196C14.8033 10.9016 15.0122 10.4167 15.1017 9.90389C15.1912 9.39107 15.1588 8.86453 15.0069 8.36644V8.36644Z" fill="#A1A5B7"/>
</g>
<defs>
<clipPath id="clip0_414_2">
<rect width="16.0847" height="16" fill="white"/>
</clipPath>
</defs>
</svg>
