<svg width="24" height="72" viewBox="0 0 24 72" fill="none" xmlns="http://www.w3.org/2000/svg">
<path d="M12 19.5C16.1421 19.5 19.5 16.1421 19.5 12C19.5 7.85786 16.1421 4.5 12 4.5C7.85786 4.5 4.5 7.85786 4.5 12C4.5 16.1421 7.85786 19.5 12 19.5Z" fill="white" stroke="#E0E0E0"/>
<path d="M12 43.5C16.1421 43.5 19.5 40.1421 19.5 36C19.5 31.8579 16.1421 28.5 12 28.5C7.85786 28.5 4.5 31.8579 4.5 36C4.5 40.1421 7.85786 43.5 12 43.5Z" fill="#1ABC9C" stroke="#E0E0E0"/>
<path d="M10.7498 37.7502L8.99984 36.0002L8.4165 36.5835L10.7498 38.9168L15.7498 33.9168L15.1665 33.3335L10.7498 37.7502Z" fill="white"/>
<path d="M12 67.5C16.1421 67.5 19.5 64.1421 19.5 60C19.5 55.8579 16.1421 52.5 12 52.5C7.85786 52.5 4.5 55.8579 4.5 60C4.5 64.1421 7.85786 67.5 12 67.5Z" fill="#1ABC9C" stroke="#E0E0E0"/>
<path d="M10.7498 61.7502L8.99984 60.0002L8.4165 60.5835L10.7498 62.9168L15.7498 57.9168L15.1665 57.3335L10.7498 61.7502Z" fill="white"/>
</svg>
