<svg width="20" height="20" viewBox="0 0 20 20" fill="none" xmlns="http://www.w3.org/2000/svg">
<g clip-path="url(#clip0_14_38)">
<path d="M11.25 5.41662C11.25 5.74814 11.1183 6.06609 10.8839 6.30051C10.6495 6.53493 10.3316 6.66662 10 6.66662C9.66852 6.66662 9.35058 6.53493 9.11616 6.30051C8.88174 6.06609 8.75004 5.74814 8.75004 5.41662C8.75004 5.0851 8.88174 4.76716 9.11616 4.53274C9.35058 4.29832 9.66852 4.16662 10 4.16662C10.3316 4.16662 10.6495 4.29832 10.8839 4.53274C11.1183 4.76716 11.25 5.0851 11.25 5.41662V5.41662ZM20 15.8333V10.2833C20.0311 7.7145 19.0893 5.22903 17.3636 3.32593C15.638 1.42283 13.2563 0.242985 10.6967 0.0232875C9.26808 -0.0766645 7.83465 0.131404 6.49341 0.633415C5.15216 1.13543 3.93438 1.91967 2.92247 2.93308C1.91056 3.94649 1.12813 5.16543 0.628106 6.50742C0.128084 7.84941 -0.0778587 9.28315 0.024211 10.7116C0.392544 16.0066 5.06838 20 10.9025 20H15.8334C16.938 19.9986 17.9971 19.5592 18.7782 18.7781C19.5593 17.997 19.9987 16.938 20 15.8333V15.8333ZM10.5834 1.68662C12.7221 1.87582 14.71 2.86738 16.1476 4.46208C17.5853 6.05679 18.3661 8.13647 18.3334 10.2833V15.8333C18.3334 16.4963 18.07 17.1322 17.6011 17.6011C17.1323 18.0699 16.4964 18.3333 15.8334 18.3333H10.9025C5.87421 18.3333 2.00004 15.0833 1.68754 10.5966C1.6055 9.45378 1.76002 8.30629 2.14145 7.22585C2.52287 6.14541 3.123 5.15523 3.90435 4.31718C4.6857 3.47913 5.63148 2.81122 6.6826 2.35516C7.73372 1.89911 8.86759 1.66471 10.0134 1.66662C10.2025 1.66662 10.3934 1.67412 10.5834 1.68662ZM11.6667 15V9.99996C11.6667 9.55793 11.4911 9.13401 11.1786 8.82145C10.866 8.50889 10.4421 8.33329 10 8.33329H9.16671C8.9457 8.33329 8.73373 8.42109 8.57745 8.57737C8.42117 8.73365 8.33338 8.94561 8.33338 9.16662C8.33338 9.38764 8.42117 9.5996 8.57745 9.75588C8.73373 9.91216 8.9457 9.99996 9.16671 9.99996H10V15C10 15.221 10.0878 15.4329 10.2441 15.5892C10.4004 15.7455 10.6124 15.8333 10.8334 15.8333C11.0544 15.8333 11.2664 15.7455 11.4226 15.5892C11.5789 15.4329 11.6667 15.221 11.6667 15Z" fill="#999999"/>
</g>
<defs>
<clipPath id="clip0_14_38">
<rect width="20" height="20" fill="white"/>
</clipPath>
</defs>
</svg>
