<svg width="40" height="40" viewBox="0 0 40 40" fill="none" xmlns="http://www.w3.org/2000/svg">
<circle cx="20" cy="20" r="20" fill="#EAEAEA"/>
<g clip-path="url(#clip0)">
<path d="M25.8332 17.02V15.8333C25.8332 14.2862 25.2186 12.8025 24.1246 11.7085C23.0307 10.6146 21.5469 10 19.9998 10C18.4527 10 16.969 10.6146 15.875 11.7085C14.7811 12.8025 14.1665 14.2862 14.1665 15.8333V17.02C13.4243 17.3439 12.7926 17.8771 12.3486 18.5543C11.9046 19.2316 11.6676 20.0235 11.6665 20.8333V25.8333C11.6678 26.938 12.1072 27.997 12.8884 28.7782C13.6695 29.5593 14.7285 29.9987 15.8332 30H24.1665C25.2712 29.9987 26.3302 29.5593 27.1113 28.7782C27.8924 27.997 28.3318 26.938 28.3332 25.8333V20.8333C28.3321 20.0235 28.0951 19.2316 27.6511 18.5543C27.2071 17.8771 26.5754 17.3439 25.8332 17.02V17.02ZM15.8332 15.8333C15.8332 14.7283 16.2722 13.6685 17.0536 12.8871C17.835 12.1057 18.8948 11.6667 19.9998 11.6667C21.1049 11.6667 22.1647 12.1057 22.9461 12.8871C23.7275 13.6685 24.1665 14.7283 24.1665 15.8333V16.6667H15.8332V15.8333ZM26.6665 25.8333C26.6665 26.4964 26.4031 27.1323 25.9343 27.6011C25.4654 28.0699 24.8295 28.3333 24.1665 28.3333H15.8332C15.1701 28.3333 14.5342 28.0699 14.0654 27.6011C13.5966 27.1323 13.3332 26.4964 13.3332 25.8333V20.8333C13.3332 20.1703 13.5966 19.5344 14.0654 19.0656C14.5342 18.5967 15.1701 18.3333 15.8332 18.3333H24.1665C24.8295 18.3333 25.4654 18.5967 25.9343 19.0656C26.4031 19.5344 26.6665 20.1703 26.6665 20.8333V25.8333Z" fill="white"/>
<path d="M19.9998 21.6667C19.7788 21.6667 19.5669 21.7545 19.4106 21.9108C19.2543 22.0671 19.1665 22.2791 19.1665 22.5001V24.1667C19.1665 24.3878 19.2543 24.5997 19.4106 24.756C19.5669 24.9123 19.7788 25.0001 19.9998 25.0001C20.2209 25.0001 20.4328 24.9123 20.5891 24.756C20.7454 24.5997 20.8332 24.3878 20.8332 24.1667V22.5001C20.8332 22.2791 20.7454 22.0671 20.5891 21.9108C20.4328 21.7545 20.2209 21.6667 19.9998 21.6667Z" fill="white"/>
</g>
<defs>
<clipPath id="clip0">
<rect width="20" height="20" fill="white" transform="translate(10 10)"/>
</clipPath>
</defs>
</svg>
