<svg width="40" height="40" viewBox="0 0 40 40" fill="none" xmlns="http://www.w3.org/2000/svg">
<circle cx="20" cy="20" r="20" fill="#EAEAEA"/>
<g clip-path="url(#clip0)">
<path d="M29.0239 17.6434L25.7914 14.4109C25.6342 14.2591 25.4237 14.1751 25.2052 14.177C24.9867 14.1789 24.7777 14.2666 24.6232 14.4211C24.4687 14.5756 24.3811 14.7846 24.3792 15.0031C24.3773 15.2216 24.4613 15.4321 24.6131 15.5893L27.8456 18.8218C27.9416 18.9197 28.0255 19.0288 28.0956 19.1468C28.0831 19.1468 28.0731 19.1401 28.0606 19.1401L14.9906 19.1668C14.7695 19.1668 14.5576 19.2546 14.4013 19.4108C14.245 19.5671 14.1572 19.7791 14.1572 20.0001C14.1572 20.2211 14.245 20.4331 14.4013 20.5894C14.5576 20.7456 14.7695 20.8334 14.9906 20.8334L28.0556 20.8068C28.0789 20.8068 28.0981 20.7951 28.1206 20.7934C28.0466 20.9344 27.9529 21.064 27.8422 21.1784L24.6097 24.4109C24.5301 24.4878 24.4667 24.5798 24.423 24.6814C24.3793 24.7831 24.3563 24.8924 24.3554 25.0031C24.3544 25.1137 24.3755 25.2235 24.4174 25.3259C24.4593 25.4283 24.5212 25.5213 24.5994 25.5996C24.6776 25.6778 24.7707 25.7397 24.8731 25.7816C24.9755 25.8235 25.0852 25.8446 25.1959 25.8436C25.3065 25.8427 25.4159 25.8197 25.5176 25.776C25.6192 25.7323 25.7112 25.6689 25.7881 25.5893L29.0206 22.3568C29.6455 21.7317 29.9965 20.884 29.9965 20.0001C29.9965 19.1162 29.6455 18.2685 29.0206 17.6434H29.0239Z" fill="white"/>
<path d="M15.8333 28.3333H14.1667C13.5036 28.3333 12.8677 28.0699 12.3989 27.6011C11.9301 27.1323 11.6667 26.4964 11.6667 25.8333V14.1667C11.6667 13.5036 11.9301 12.8677 12.3989 12.3989C12.8677 11.9301 13.5036 11.6667 14.1667 11.6667H15.8333C16.0543 11.6667 16.2663 11.5789 16.4226 11.4226C16.5789 11.2663 16.6667 11.0543 16.6667 10.8333C16.6667 10.6123 16.5789 10.4004 16.4226 10.2441C16.2663 10.0878 16.0543 10 15.8333 10H14.1667C13.062 10.0013 12.003 10.4407 11.2218 11.2218C10.4407 12.003 10.0013 13.062 10 14.1667L10 25.8333C10.0013 26.938 10.4407 27.997 11.2218 28.7782C12.003 29.5593 13.062 29.9987 14.1667 30H15.8333C16.0543 30 16.2663 29.9122 16.4226 29.7559C16.5789 29.5996 16.6667 29.3877 16.6667 29.1667C16.6667 28.9457 16.5789 28.7337 16.4226 28.5774C16.2663 28.4211 16.0543 28.3333 15.8333 28.3333Z" fill="white"/>
</g>
<defs>
<clipPath id="clip0">
<rect width="20" height="20" fill="white" transform="translate(10 10)"/>
</clipPath>
</defs>
</svg>
