<svg width="24" height="24" viewBox="0 0 24 24" fill="none" xmlns="http://www.w3.org/2000/svg">
<g clip-path="url(#clip0_21_2)">
<path d="M23.119 0.882014C22.7605 0.519141 22.3144 0.254869 21.8239 0.11473C21.3335 -0.0254085 20.8151 -0.0366769 20.319 0.0820139L4.31901 3.45201C3.39759 3.57838 2.52974 3.95949 1.81321 4.55243C1.09668 5.14536 0.559923 5.92657 0.263385 6.80808C-0.033153 7.68959 -0.0776925 8.63638 0.134782 9.54183C0.347257 10.4473 0.808307 11.2754 1.46601 11.933L3.18401 13.65C3.27699 13.743 3.35073 13.8534 3.40101 13.9748C3.45129 14.0963 3.47711 14.2265 3.47701 14.358V17.526C3.47922 17.9714 3.58176 18.4107 3.77701 18.811L3.76901 18.818L3.79501 18.844C4.08802 19.4331 4.56659 19.9096 5.15701 20.2L5.18301 20.226L5.19001 20.218C5.59037 20.4133 6.02958 20.5158 6.47501 20.518H9.64301C9.90806 20.5178 10.1624 20.6228 10.35 20.81L12.067 22.527C12.5275 22.9926 13.0757 23.3625 13.6798 23.6153C14.2839 23.8681 14.9321 23.9989 15.587 24C16.1328 23.9993 16.6748 23.9102 17.192 23.736C18.0655 23.4492 18.8414 22.924 19.4322 22.2197C20.0231 21.5154 20.4054 20.66 20.536 19.75L23.911 3.71501C24.0359 3.21466 24.0285 2.69043 23.8897 2.19378C23.7508 1.69712 23.4852 1.24508 23.119 0.882014V0.882014ZM4.60001 12.238L2.88101 10.521C2.48073 10.1304 2.20018 9.63366 2.0723 9.08917C1.94441 8.54468 1.97449 7.97501 2.15901 7.44701C2.33791 6.90534 2.66861 6.42644 3.11181 6.06728C3.555 5.70811 4.09202 5.4838 4.65901 5.42101L20.5 2.08601L5.47501 17.113V14.358C5.47652 13.9644 5.39997 13.5743 5.24978 13.2104C5.09959 12.8465 4.87874 12.516 4.60001 12.238V12.238ZM18.571 19.408C18.4942 19.9604 18.265 20.4804 17.9091 20.9097C17.5532 21.339 17.0847 21.6606 16.5561 21.8384C16.0276 22.0162 15.46 22.0431 14.9169 21.9163C14.3739 21.7894 13.877 21.5136 13.482 21.12L11.762 19.4C11.4844 19.1209 11.1542 18.8995 10.7904 18.7488C10.4267 18.5981 10.0367 18.521 9.64301 18.522H6.88801L21.915 3.50001L18.571 19.408Z" fill="#535353"/>
</g>
<defs>
<clipPath id="clip0_21_2">
<rect width="24" height="24" fill="white"/>
</clipPath>
</defs>
</svg>
