<svg width="316" height="180" viewBox="0 0 316 180" fill="none" xmlns="http://www.w3.org/2000/svg">
<g clip-path="url(#clip0)">
<path d="M317 0H0V180H317V0Z" fill="#EAEAEA"/>
<path d="M158.666 69.6666C162.333 69.6666 165.333 72.6666 165.333 76.3333C165.333 80 162.333 83 158.666 83C155 83 152 80 152 76.3333C152 72.6666 155 69.6666 158.666 69.6666ZM158.666 103C167.666 103 178 107.3 178.666 109.667H138.666C139.433 107.267 149.7 103 158.666 103ZM158.666 63C151.3 63 145.333 68.9666 145.333 76.3333C145.333 83.7 151.3 89.6666 158.666 89.6666C166.033 89.6666 172 83.7 172 76.3333C172 68.9666 166.033 63 158.666 63ZM158.666 96.3333C149.766 96.3333 132 100.8 132 109.667V116.334H185.333V109.667C185.333 100.8 167.566 96.3333 158.666 96.3333Z" fill="white"/>
</g>
<defs>
<clipPath id="clip0">
<rect width="316" height="180" fill="white"/>
</clipPath>
</defs>
</svg>
